<?xml version="1.0" encoding="UTF-8" standalone="no"?>
<!-- Created with Inkscape (http://www.inkscape.org/) -->

<svg
   xmlns:dc="http://purl.org/dc/elements/1.1/"
   xmlns:cc="http://creativecommons.org/ns#"
   xmlns:rdf="http://www.w3.org/1999/02/22-rdf-syntax-ns#"
   xmlns:svg="http://www.w3.org/2000/svg"
   xmlns="http://www.w3.org/2000/svg"
   xmlns:sodipodi="http://sodipodi.sourceforge.net/DTD/sodipodi-0.dtd"
   xmlns:inkscape="http://www.inkscape.org/namespaces/inkscape"
   width="31.054087mm"
   height="33.128853mm"
   viewBox="0 0 110.03417 117.3857"
   id="svg2"
   version="1.1"
   inkscape:version="0.91 r13725"
   sodipodi:docname="shapeshift.svg">
  <defs
     id="defs4" />
  <sodipodi:namedview
     id="base"
     pagecolor="#ffffff"
     bordercolor="#666666"
     borderopacity="1.0"
     inkscape:pageopacity="0.0"
     inkscape:pageshadow="2"
     inkscape:zoom="5.6"
     inkscape:cx="53.276834"
     inkscape:cy="42.979681"
     inkscape:document-units="px"
     inkscape:current-layer="layer1"
     showgrid="false"
     fit-margin-top="0"
     fit-margin-left="0"
     fit-margin-right="0"
     fit-margin-bottom="0"
     inkscape:window-width="1680"
     inkscape:window-height="988"
     inkscape:window-x="-8"
     inkscape:window-y="-8"
     inkscape:window-maximized="1" />
  <metadata
     id="metadata7">
    <rdf:RDF>
      <cc:Work
         rdf:about="">
        <dc:format>image/svg+xml</dc:format>
        <dc:type
           rdf:resource="http://purl.org/dc/dcmitype/StillImage" />
        <dc:title></dc:title>
      </cc:Work>
    </rdf:RDF>
  </metadata>
  <g
     inkscape:label="Layer 1"
     inkscape:groupmode="layer"
     id="layer1"
     transform="translate(-287.85798,-209.26224)">
    <path
       style="fill:#527299;fill-opacity:1;stroke-width:3;stroke-linecap:butt;stroke-miterlimit:4;stroke-dasharray:none"
       d="m 329.50708,310.83277 c -1.76743,-1.74112 -3.81742,-3.52874 -5.4138,-4.72096 -3.33619,-2.49152 -11.24706,-7.77272 -17.15902,-11.45514 -7.86838,-4.90104 -15.54412,-10.11698 -16.59201,-11.27487 -0.34172,-0.37762 -0.33905,-0.41636 0.16247,-2.3574 0.68836,-2.66413 2.38995,-8.30945 4.94647,-16.41073 1.16798,-3.70123 2.1236,-6.92197 2.12359,-7.15725 -2e-5,-0.23527 -0.99281,-6.00214 -2.20618,-12.81528 -3.65964,-20.54891 -5.4483,-31.86323 -5.09329,-32.21822 0.36014,-0.36015 7.65103,2.40672 21.05654,7.99088 l 10.13977,4.2238 20.22312,0 20.22311,0 12.01063,-4.87395 c 22.13227,-8.98131 21.13161,-8.59005 21.44648,-8.38557 0.20919,0.13586 0.28045,0.43885 0.25422,1.08095 -0.0958,2.34187 -7.0107,38.60027 -8.50368,44.58842 -0.36792,1.47568 -0.36803,1.49322 -0.0149,2.31712 0.71318,1.66379 2.60246,6.77748 4.12321,11.16033 0.85661,2.46874 2.00815,5.77005 2.55897,7.33626 0.55083,1.56621 1.1077,3.3222 1.2375,3.90217 0.22802,1.01889 0.22103,1.07067 -0.20667,1.53257 -1.32334,1.42913 -7.77496,5.85024 -16.04175,10.9929 -7.89597,4.91199 -15.3284,9.96012 -18.90245,12.83856 -0.90842,0.73162 -2.8839,2.45591 -4.38994,3.83177 -1.50605,1.37587 -2.79752,2.50158 -2.86991,2.50158 -0.0723,0 -2.10223,-1.88838 -4.51074,-4.19641 -2.40849,-2.30801 -4.64904,-4.42255 -4.97898,-4.69897 l -0.59994,-0.50257 -0.77647,0.63693 c -0.42705,0.3503 -2.68804,2.50614 -5.02442,4.79074 -2.33638,2.28459 -4.2771,4.15172 -4.3127,4.14916 -0.0355,-0.002 -1.34476,-1.26562 -2.90928,-2.80682 z"
       id="path4153"
       inkscape:connector-curvature="0" />
    <path
       style="fill:#000000"
       d="m 332.62749,316.60148 c -7.42656,-8.15833 -12.36668,-12.04265 -26.28556,-20.66787 -9.42712,-5.84177 -17.41601,-11.06765 -17.75309,-11.61306 -0.33708,-0.54541 1.04161,-6.29174 3.06377,-12.76963 2.02215,-6.4779 3.67417,-13.18424 3.67115,-14.90299 -0.003,-1.71875 -1.68386,-12.40625 -3.73522,-23.75 -2.05135,-11.34375 -3.7301,-21.32813 -3.73056,-22.1875 -10e-4,-2.5855 2.69939,-1.86807 19.99917,5.3125 l 16.56357,6.875 17.33191,0 17.3319,0 17.63402,-6.875 c 17.30681,-6.74743 21.10377,-7.81218 21.17344,-5.9375 0.0191,0.51562 -1.75117,11.38453 -3.93407,24.15313 l -3.9689,23.21563 3.83528,13.00108 c 2.1094,7.15059 3.5772,13.41865 3.26177,13.92901 -0.31541,0.51036 -8.29062,5.69628 -17.72267,11.52428 -14.02271,8.66453 -18.8152,12.43249 -26.28755,20.66786 -5.0261,5.53934 -9.62541,10.07151 -10.22069,10.07151 -0.59528,0 -5.19773,-4.5209 -10.22767,-10.04645 z m 17.85472,-2.32117 c -1.57214,-1.53131 -1.15698,-1.05821 -4.07405,-3.94836 l -3.70885,-3.36257 -3.23533,3.0469 c -2.57968,2.69984 -3.63593,3.42675 -4.6201,4.37605 1.10491,1.27384 2.44524,2.69483 3.95613,4.33714 2.36924,2.56346 2.8808,2.84573 3.77792,3.77696 3.25229,-3.10834 3.42622,-3.49173 7.90428,-8.22612 z m -12.85587,-6.53387 c 2.30212,-2.21685 3.52953,-3.45955 5.1758,-4.75381 0.98336,0.82075 3.30307,2.95342 5.80282,5.36126 l 3.99574,3.84883 5.44073,-4.9649 c 2.99239,-2.73069 12.33134,-9.1667 20.75322,-14.30225 8.42187,-5.13555 15.3125,-10.02081 15.3125,-10.85613 0,-0.83532 -0.65334,-3.10225 -1.45185,-5.03764 -2.39159,-6.82937 -4.22826,-12.53031 -6.76021,-18.62631 0.76233,-1.89438 4.88311,-22.91773 8.59291,-43.83919 0.40906,-2.30692 0.1,-2.53958 -2.13884,-1.60989 -1.43936,0.5977 -8.92226,3.63931 -16.62868,6.75913 l -14.01168,5.67239 -19.75481,0 -19.75482,0 -14.90517,-6.22417 c -8.19785,-3.4233 -15.15087,-5.97848 -15.45116,-5.67818 -0.3003,0.30029 1.20004,10.3368 3.33408,22.30334 l 3.88008,21.75736 -3.70284,11.73332 c -2.03657,6.45333 -3.71278,12.30646 -3.72493,13.00695 -0.0121,0.70049 7.43104,5.86529 16.54042,11.47732 9.10937,5.61203 18.21461,11.92952 20.23386,14.03887 2.01925,2.10936 3.32784,3.25958 4.49488,4.4981 1.27684,-1.04172 2.42138,-2.34328 4.72795,-4.5644 z"
       id="path4149"
       inkscape:connector-curvature="0"
       sodipodi:nodetypes="sssscscscccscscscssssccccccccscscsssccssscccscscscsscs" />
  </g>
</svg>
